solid OpenSCAD_Model
  facet normal -1 0 0
    outer loop
      vertex 0 0 0
      vertex 0 36.75 8
      vertex 0 36.75 0
    endloop
  endfacet
  facet normal -1 -0 0
    outer loop
      vertex 0 36.75 8
      vertex 0 0 0
      vertex 0 0 8
    endloop
  endfacet
  facet normal 0 0 -1
    outer loop
      vertex 41.5 2 6
      vertex 38.5 5 6
      vertex 41.5 36.75 6
    endloop
  endfacet
  facet normal 0 0 -1
    outer loop
      vertex 41.5 2 6
      vertex 5 5 6
      vertex 38.5 5 6
    endloop
  endfacet
  facet normal 0 0 -1
    outer loop
      vertex 2 2 6
      vertex 5 5 6
      vertex 41.5 2 6
    endloop
  endfacet
  facet normal 0 0 -1
    outer loop
      vertex 2 36.75 6
      vertex 5 5 6
      vertex 2 2 6
    endloop
  endfacet
  facet normal 0 0 -1
    outer loop
      vertex 5 5 6
      vertex 2 36.75 6
      vertex 5 36.75 6
    endloop
  endfacet
  facet normal -0 0 -1
    outer loop
      vertex 41.5 36.75 6
      vertex 38.5 5 6
      vertex 38.5 36.75 6
    endloop
  endfacet
  facet normal 1 -0 0
    outer loop
      vertex 43.5 0 8
      vertex 43.5 36.75 0
      vertex 43.5 36.75 8
    endloop
  endfacet
  facet normal 1 0 0
    outer loop
      vertex 43.5 36.75 0
      vertex 43.5 0 8
      vertex 43.5 0 0
    endloop
  endfacet
  facet normal -0 0 1
    outer loop
      vertex 2 36.75 3
      vertex 41.5 2 3
      vertex 41.5 36.75 3
    endloop
  endfacet
  facet normal 0 0 1
    outer loop
      vertex 41.5 2 3
      vertex 2 36.75 3
      vertex 2 2 3
    endloop
  endfacet
  facet normal 0 -1 0
    outer loop
      vertex 0 0 0
      vertex 43.5 0 8
      vertex 0 0 8
    endloop
  endfacet
  facet normal 0 -1 -0
    outer loop
      vertex 43.5 0 8
      vertex 0 0 0
      vertex 43.5 0 0
    endloop
  endfacet
  facet normal 0 1 -0
    outer loop
      vertex 41.5 2 3
      vertex 2 2 6
      vertex 41.5 2 6
    endloop
  endfacet
  facet normal 0 1 0
    outer loop
      vertex 2 2 6
      vertex 41.5 2 3
      vertex 2 2 3
    endloop
  endfacet
  facet normal 1 -0 0
    outer loop
      vertex 2 2 6
      vertex 2 36.75 3
      vertex 2 36.75 6
    endloop
  endfacet
  facet normal 1 0 0
    outer loop
      vertex 2 36.75 3
      vertex 2 2 6
      vertex 2 2 3
    endloop
  endfacet
  facet normal 0 1 0
    outer loop
      vertex 43.5 36.75 8
      vertex 41.5 36.75 6
      vertex 38.5 36.75 8
    endloop
  endfacet
  facet normal 0 1 0
    outer loop
      vertex 43.5 36.75 8
      vertex 41.5 36.75 3
      vertex 41.5 36.75 6
    endloop
  endfacet
  facet normal 0 1 0
    outer loop
      vertex 41.5 36.75 3
      vertex 43.5 36.75 0
      vertex 2 36.75 3
    endloop
  endfacet
  facet normal 0 1 -0
    outer loop
      vertex 43.5 36.75 0
      vertex 41.5 36.75 3
      vertex 43.5 36.75 8
    endloop
  endfacet
  facet normal 0 1 0
    outer loop
      vertex 38.5 36.75 8
      vertex 41.5 36.75 6
      vertex 38.5 36.75 6
    endloop
  endfacet
  facet normal 0 1 0
    outer loop
      vertex 2 36.75 6
      vertex 5 36.75 8
      vertex 5 36.75 6
    endloop
  endfacet
  facet normal 0 1 0
    outer loop
      vertex 5 36.75 8
      vertex 2 36.75 6
      vertex 0 36.75 8
    endloop
  endfacet
  facet normal 0 1 -0
    outer loop
      vertex 2 36.75 3
      vertex 0 36.75 8
      vertex 2 36.75 6
    endloop
  endfacet
  facet normal 0 1 0
    outer loop
      vertex 2 36.75 3
      vertex 0 36.75 0
      vertex 0 36.75 8
    endloop
  endfacet
  facet normal 0 1 0
    outer loop
      vertex 0 36.75 0
      vertex 2 36.75 3
      vertex 43.5 36.75 0
    endloop
  endfacet
  facet normal -1 0 0
    outer loop
      vertex 41.5 2 3
      vertex 41.5 36.75 6
      vertex 41.5 36.75 3
    endloop
  endfacet
  facet normal -1 -0 0
    outer loop
      vertex 41.5 36.75 6
      vertex 41.5 2 3
      vertex 41.5 2 6
    endloop
  endfacet
  facet normal 0 0 1
    outer loop
      vertex 5 36.75 8
      vertex 0 36.75 8
      vertex 5 5 8
    endloop
  endfacet
  facet normal 0 0 1
    outer loop
      vertex 38.5 5 8
      vertex 43.5 36.75 8
      vertex 38.5 36.75 8
    endloop
  endfacet
  facet normal 0 0 1
    outer loop
      vertex 43.5 36.75 8
      vertex 38.5 5 8
      vertex 43.5 0 8
    endloop
  endfacet
  facet normal -0 0 1
    outer loop
      vertex 5 5 8
      vertex 43.5 0 8
      vertex 38.5 5 8
    endloop
  endfacet
  facet normal 0 0 1
    outer loop
      vertex 5 5 8
      vertex 0 0 8
      vertex 43.5 0 8
    endloop
  endfacet
  facet normal 0 0 1
    outer loop
      vertex 0 0 8
      vertex 5 5 8
      vertex 0 36.75 8
    endloop
  endfacet
  facet normal 0 1 -0
    outer loop
      vertex 38.5 5 6
      vertex 5 5 8
      vertex 38.5 5 8
    endloop
  endfacet
  facet normal 0 1 0
    outer loop
      vertex 5 5 8
      vertex 38.5 5 6
      vertex 5 5 6
    endloop
  endfacet
  facet normal 1 -0 0
    outer loop
      vertex 5 5 8
      vertex 5 36.75 6
      vertex 5 36.75 8
    endloop
  endfacet
  facet normal 1 0 0
    outer loop
      vertex 5 36.75 6
      vertex 5 5 8
      vertex 5 5 6
    endloop
  endfacet
  facet normal -1 0 0
    outer loop
      vertex 38.5 5 6
      vertex 38.5 36.75 8
      vertex 38.5 36.75 6
    endloop
  endfacet
  facet normal -1 -0 0
    outer loop
      vertex 38.5 36.75 8
      vertex 38.5 5 6
      vertex 38.5 5 8
    endloop
  endfacet
  facet normal 0 0 -1
    outer loop
      vertex 0 0 0
      vertex 43.5 36.75 0
      vertex 43.5 0 0
    endloop
  endfacet
  facet normal -0 0 -1
    outer loop
      vertex 43.5 36.75 0
      vertex 0 0 0
      vertex 0 36.75 0
    endloop
  endfacet
endsolid OpenSCAD_Model
